<?xml version="1.0" standalone="no"?>
<!DOCTYPE svg PUBLIC "-//W3C//DTD SVG 20010904//EN"
 "http://www.w3.org/TR/2001/REC-SVG-20010904/DTD/svg10.dtd">
<svg version="1.0" xmlns="http://www.w3.org/2000/svg"
 width="171.000000pt" height="171.000000pt" viewBox="0 0 171.000000 171.000000"
 preserveAspectRatio="xMidYMid meet">
<metadata>
Created by potrace 1.14, written by Peter Selinger 2001-2017
</metadata>
<g transform="translate(0.000000,171.000000) scale(0.100000,-0.100000)"
fill="#000000" stroke="none">
<path d="M747 1644 c-320 -58 -567 -320 -611 -649 -3 -22 -5 -45 -6 -51 0 -7
-22 -10 -60 -9 l-61 2 6 -69 c28 -361 291 -640 650 -692 17 -2 37 -5 46 -5 13
-1 16 -12 15 -58 l-1 -58 50 0 c223 2 454 124 584 310 72 102 122 233 136 350
l6 61 57 -1 57 0 -2 67 c-7 215 -133 432 -326 566 -58 40 -179 96 -227 105
-14 3 -36 8 -50 11 -14 3 -42 8 -64 10 -21 3 -40 7 -42 9 -3 2 -5 30 -6 61
l-2 56 -35 -1 c-20 0 -71 -7 -114 -15z m108 -273 c-1 -27 1 -54 5 -61 4 -6 38
-18 75 -25 220 -46 393 -220 440 -442 l7 -33 -55 1 c-66 2 -77 -4 -77 -40 0
-15 -7 -52 -16 -82 -52 -178 -199 -326 -377 -380 -34 -10 -67 -19 -74 -19 -7
0 -12 20 -12 56 0 62 -8 74 -53 74 -36 0 -144 40 -203 75 -64 37 -155 130
-194 197 -29 51 -71 165 -71 192 0 8 20 12 56 13 61 0 74 10 74 54 0 30 29
120 55 170 69 132 208 244 353 284 71 20 70 20 67 -34z"/>
</g>
</svg>
